<svg width="36" height="37" viewBox="0 0 36 37" fill="none" xmlns="http://www.w3.org/2000/svg">
<mask id="mask0_68_735" style="mask-type:alpha" maskUnits="userSpaceOnUse" x="0" y="0" width="36" height="37">
<rect y="0.5" width="36" height="36" fill="#D9D9D9"/>
</mask>
<g mask="url(#mask0_68_735)">
<path d="M12.4615 34.25C11.7135 34.25 11.0745 33.9851 10.5445 33.4554C10.0148 32.9254 9.74991 32.2864 9.74991 31.5384V26.0578H11.9999V27.875H26.9999V9.125H11.9999V10.9423H9.74991V5.46163C9.74991 4.71362 10.0148 4.07463 10.5445 3.54463C11.0745 3.01488 11.7135 2.75 12.4615 2.75H26.5383C27.2863 2.75 27.9253 3.01488 28.4553 3.54463C28.985 4.07463 29.2499 4.71362 29.2499 5.46163V31.5384C29.2499 32.2864 28.985 32.9254 28.4553 33.4554C27.9253 33.9851 27.2863 34.25 26.5383 34.25H12.4615ZM11.9999 30.125V31.5384C11.9999 31.6539 12.048 31.7596 12.1443 31.8556C12.2403 31.9519 12.346 32 12.4615 32H26.5383C26.6538 32 26.7595 31.9519 26.8555 31.8556C26.9518 31.7596 26.9999 31.6539 26.9999 31.5384V30.125H11.9999ZM6.59991 25.4806L5.01929 23.9L13.7943 15.125H7.87491V12.875H17.6249V22.625H15.3749V16.7056L6.59991 25.4806ZM11.9999 6.875H26.9999V5.46163C26.9999 5.34612 26.9518 5.24037 26.8555 5.14437C26.7595 5.04812 26.6538 5 26.5383 5H12.4615C12.346 5 12.2403 5.04812 12.1443 5.14437C12.048 5.24037 11.9999 5.34612 11.9999 5.46163V6.875Z" fill="#050505"/>
</g>
</svg>
