<svg width="37" height="37" viewBox="0 0 37 37" fill="none" xmlns="http://www.w3.org/2000/svg">
<mask id="mask0_100_10" style="mask-type:alpha" maskUnits="userSpaceOnUse" x="0" y="0" width="37" height="37">
<rect x="0.5" y="0.5" width="36" height="36" fill="#D9D9D9"/>
</mask>
<g mask="url(#mask0_100_10)">
<path d="M18.5 24.5L11 17L13.1 14.825L17 18.725V6.5H20V18.725L23.9 14.825L26 17L18.5 24.5ZM9.5 30.5C8.675 30.5 7.96875 30.2062 7.38125 29.6187C6.79375 29.0312 6.5 28.325 6.5 27.5V23H9.5V27.5H27.5V23H30.5V27.5C30.5 28.325 30.2062 29.0312 29.6187 29.6187C29.0312 30.2062 28.325 30.5 27.5 30.5H9.5Z" fill="white"/>
</g>
</svg>
