<svg width="42" height="47" viewBox="0 0 42 47" fill="none" xmlns="http://www.w3.org/2000/svg">
<rect y="4.98242" width="42" height="42" rx="21" fill="white"/>
<path d="M6.52 36.0166V16.1016H11.595L12.05 18.6216H12.155C13.8 16.9766 15.515 15.6116 18.21 15.6116C20.975 15.6116 22.655 16.7666 23.67 18.9016C25.385 17.1516 27.24 15.6116 29.9 15.6116C34.24 15.6116 36.13 18.7266 36.13 23.6966V36.0166H29.9V24.4666C29.9 21.7016 29.2 20.9316 27.625 20.9316C26.715 20.9316 25.63 21.4916 24.44 22.7166V36.0166H18.21V24.4666C18.21 21.7016 17.475 20.9316 15.9 20.9316C14.99 20.9316 13.905 21.4916 12.75 22.7166V36.0166H6.52Z" fill="black"/>
</svg>
